<svg xmlns="http://www.w3.org/2000/svg" height="800" width="1200" version="1.0" viewBox="-65.44185 -27.38925 567.1627 164.3355"><path d="M217.476 16.35a16.345 16.345 0 11-32.69 0 16.345 16.345 0 1132.69 0z" fill="#e51837"/><path style="line-height:125%;-inkscape-font-specification:'Futura XBlk BT';text-align:start" d="M0 98.176l3.622-64.912 25.047 4.38c8.814 1.542 15.152 4.56 19.016 9.057 3.864 4.496 5.567 10.853 5.108 19.07-.427 7.656-2.57 12.93-6.431 15.821-3.86 2.892-9.773 3.641-17.737 2.248l-6.57-1.149-1.07 19.155zm23.68-43.182l-.604 10.818 3.266.571c1.99.349 3.543.15 4.657-.595 1.114-.746 1.719-1.976 1.814-3.69.096-1.715-.374-3.147-1.408-4.298-1.035-1.151-2.522-1.896-4.46-2.235z" font-weight="400" font-size="86.474" font-family="Futura XBlk BT" fill="#e51837"/><path style="line-height:125%;-inkscape-font-specification:'Futura XBlk BT';text-align:start" d="M54.464 106.285l2.132-62.984 39.781 3.134-.578 17.08-18.814-1.482-.205 6.066 17.066 1.344-.546 16.133-17.066-1.344-.225 6.625 19.302 1.52-.578 17.08z" font-weight="400" font-size="85.743" font-family="Futura XBlk BT" fill="#e51837"/><path style="line-height:125%;-inkscape-font-specification:'Futura XBlk BT';text-align:start" d="M110.997 108.95l.812-41.532-11.267-.338.395-20.198 42.762 1.283-.395 20.197-11.268-.338-.811 41.533z" font-weight="400" font-size="82.492" font-family="Futura XBlk BT" fill="#e51837"/><path style="line-height:125%" d="M154.115 102.653l5.913-17.275c3.227 1.983 6.084 3.404 8.57 4.261 2.486.858 4.785 1.224 6.897 1.1 1.48-.088 2.63-.438 3.446-1.05.817-.613 1.197-1.4 1.14-2.36-.098-1.672-2.3-2.822-6.602-3.448-1.389-.22-2.472-.39-3.25-.51-4.562-.83-8.119-2.574-10.67-5.23-2.551-2.656-3.95-6.069-4.197-10.237-.383-6.472 1.623-11.875 6.018-16.208 4.395-4.332 10.35-6.72 17.863-7.165a38.976 38.976 0 0110.282.754c3.4.707 6.854 1.879 10.363 3.515l-5.65 16.145c-2.175-1.413-4.336-2.462-6.481-3.147-2.146-.685-4.206-.969-6.18-.852-1.51.09-2.66.412-3.452.968-.793.556-1.163 1.286-1.11 2.191.101 1.7 3.193 3.018 9.275 3.951.973.163 1.723.284 2.25.363 4.196.687 7.573 2.4 10.129 5.139 2.556 2.738 3.955 6.15 4.196 10.237.394 6.664-1.69 12.25-6.253 16.757-4.563 4.508-10.698 6.99-18.404 7.446-3.95.233-7.932-.095-11.947-.986-4.016-.891-8.064-2.344-12.146-4.36z" font-weight="400" font-size="13546.2" font-family="Bitstream Vera Sans" fill="#0068b3"/><path style="line-height:125%" d="M257.388 98.616l-2.169-23.45-.403-5.411a204.969 204.969 0 01-.334-5.42 78.175 78.175 0 01-.91 5.589c-.39 1.977-.869 4.096-1.436 6.356l-5.95 23.857-10.959 1.489-5.812-22.26a83.373 83.373 0 01-1.416-5.97 74.18 74.18 0 01-.86-5.348 680.05 680.05 0 01-.383 5.538c-.134 1.82-.274 3.654-.42 5.502l-2.312 24.059-18.064 2.453 8.933-61.149 19.01-2.581 3.596 14.331.519 2.018c1.522 6.043 2.451 11.062 2.79 15.055l.314-.042c.288-2.578.716-5.338 1.285-8.281.569-2.943 1.325-6.266 2.27-9.97l3.86-15.099 18.975-2.577 7.941 58.858zm46.057-25.632l7.667-.16-1.555-6.764c-.76-3.423-1.277-6.06-1.552-7.91a49.002 49.002 0 01-.51-5.23l-.314.007a49.715 49.715 0 01-.541 5.251c-.286 1.862-.819 4.521-1.6 7.976zm-24.503 22.291l18.456-60.321 20.516-.429 17.743 59.565-19.815.414-1.623-7.499-13.898.29-1.598 7.567z" font-weight="400" font-size="1116.5" font-family="Bitstream Vera Sans" fill="#0068b3"/><path style="line-height:125%" d="M360.359 52.206l-.04 11.407 3.262.13c1.99.08 3.524-.345 4.601-1.272 1.078-.928 1.62-2.296 1.627-4.104.006-1.861-.526-3.312-1.597-4.352-1.07-1.04-2.6-1.6-4.59-1.679zm-20.686 42.537l.206-58.393 26.342 1.05c7.64.305 13.47 2.227 17.49 5.764 4.02 3.538 6.02 8.484 5.998 14.84-.015 4.148-1.042 7.524-3.08 10.129-2.04 2.604-4.784 4.064-8.234 4.379l15.475 24.392-23.477-.936-10.12-19.671-.067 19.264z" font-weight="400" font-size="1174.97" font-family="Bitstream Vera Sans" fill="#0068b3"/><path style="line-height:125%;-inkscape-font-specification:'Futura XBlk BT';text-align:start" d="M403.578 100.146l.812-40.34-11.267-1.602.394-19.616 42.762 6.08-.395 19.616-11.267-1.602-.812 40.34z" font-weight="400" font-size="81.39" font-family="Futura XBlk BT" fill="#0068b3"/><path d="M50.754 17.984c51.361-22.866 81.544-8.669 98.072 29.422-34.054-39.814-66.162-36.79-98.072-29.422zm125.042-.817c-20.055 16.715-21.256 26.36-24.518 36.777 8.346-11.64 17.57-21.523 30.239-24.518-5.39-4.086-4.223-8.173-5.721-12.26z" fill="#0064b1" fill-rule="evenodd"/><path d="M190.507 14.715c2.51-11.813 9.623-9.815 16.345-8.99-5.824 2.246-12.531 2.725-16.345 8.99z" fill="#fff" fill-rule="evenodd"/></svg>